<svg width="512" height="512" viewBox="0 0 512 512" fill="none" xmlns="http://www.w3.org/2000/svg" xmlns:xlink="http://www.w3.org/1999/xlink" class="">
  <rect id="r4" width="512" height="512" x="0" y="0" rx="128" fill="#16a34a" stroke="#FFFFFF" stroke-width="0" stroke-opacity="100%" paint-order="stroke"></rect>
  <clipPath id="clip">
    <use xlink:href="#r4"></use>
  </clipPath>
  <defs>
    <linearGradient id="r5" gradientUnits="userSpaceOnUse" gradientTransform="rotate(90)" style="transform-origin: center center;">
      <stop stop-color="#16a34a"></stop>
      <stop offset="1" stop-color="#15803d"></stop>
    </linearGradient>
    <radialGradient id="r6" cx="0" cy="0" r="1" gradientUnits="userSpaceOnUse" gradientTransform="translate(256) rotate(90) scale(512)">
      <stop stop-color="white"></stop>
      <stop offset="1" stop-color="white" stop-opacity="0"></stop>
    </radialGradient>
  </defs>
  <svg xmlns="http://www.w3.org/2000/svg" width="400" height="400" viewBox="0 0 256 256" x="56" y="56" alignment-baseline="middle" style="color: rgb(255, 255, 255);">
    <path fill="currentColor" d="M216 40v184a8 8 0 0 1-16 0v-48h-48a8 8 0 0 1-8-8a268.75 268.75 0 0 1 7.22-56.88c9.78-40.49 28.32-67.63 53.63-78.47A8 8 0 0 1 216 40Zm-96.11-1.31a8 8 0 1 0-15.78 2.63L111.89 88H88V40a8 8 0 0 0-16 0v48H48.11l7.78-46.68a8 8 0 1 0-15.78-2.63l-8 48A8.17 8.17 0 0 0 32 88a48.07 48.07 0 0 0 40 47.32V224a8 8 0 0 0 16 0v-88.68A48.07 48.07 0 0 0 128 88a8.17 8.17 0 0 0-.11-1.31Z"></path>
  </svg>
</svg>